# xmcd
#
# Track frame offsets: 
#        150
#        52185
#        77487
#        119120
#        168082
#        213520
#        231627
#        260670
#        300995
#        327200
#
# Disc length: 4543 seconds
#
# Revision: 3
# Processed by: cddbd v1.5.2PL0 Copyright (c) Steve Scherf et al.
# Submitted via: ExactAudioCopy v0.95b2
#
DISCID=8d11bd0a
DTITLE=The Charles Lloyd Quartet - Journey Within with In Europe
DYEAR=1967
DGENRE=Jazz
TTITLE0=Journey Within
TTITLE1=Love No.3
TTITLE2=Memphis Green 
TTITLE3=Lonesome Child: Song - Dance
TTITLE4=Tagore
TTITLE5=Karma
TTITLE6=Little Anahid's Day
TTITLE7=Manhattan Carousel
TTITLE8=European Fantasy
TTITLE9=Hej Da! (Hey Daw)
EXTD=YEAR: 1967
EXTT0=
EXTT1=
EXTT2=
EXTT3=
EXTT4=
EXTT5=
EXTT6=
EXTT7=
EXTT8=
EXTT9=
PLAYORDER=
